<svg xmlns="http://www.w3.org/2000/svg" version="1.1" xmlns:xlink="http://www.w3.org/1999/xlink" xmlns:svgjs="http://svgjs.dev/svgjs" width="1000" height="1000" viewBox="0 0 1000 1000"><rect width="1000" height="1000" fill="#ffffff"></rect><g transform="matrix(0.7,0,0,0.7,149.5757576629548,467.85608712637145)"><svg viewBox="0 0 396 37" data-background-color="#ffffff" preserveAspectRatio="xMidYMid meet" height="93" width="1000" xmlns="http://www.w3.org/2000/svg" xmlns:xlink="http://www.w3.org/1999/xlink"><g id="tight-bounds" transform="matrix(1,0,0,1,0.24000004932878483,-0.23080062794346645)"><svg viewBox="0 0 395.52 37.46160125588697" height="37.46160125588697" width="395.52"><g><svg viewBox="0 0 395.52 37.46160125588697" height="37.46160125588697" width="395.52"><g><svg viewBox="0 0 395.52 37.46160125588697" height="37.46160125588697" width="395.52"><g id="textblocktransform"><svg viewBox="0 0 395.52 37.46160125588697" height="37.46160125588697" width="395.52" id="textblock"><g><svg viewBox="0 0 395.52 37.46160125588697" height="37.46160125588697" width="395.52"><g transform="matrix(1,0,0,1,0,0)"><svg width="395.52" viewBox="4.150000095367432 -35.599998474121094 382.33001708984375 36.19999694824219" height="37.46160125588697" data-palette-color="#1c64f2"><g class="wordmark-text-0" data-fill-palette-color="primary" id="text-0"><path d="M4.15 0L4.15-35 20.05-35Q25.75-35 30.13-32.83 34.5-30.65 36.93-26.7 39.35-22.75 39.35-17.5L39.35-17.5Q39.35-12.25 36.93-8.3 34.5-4.35 30.13-2.18 25.75 0 20.05 0L20.05 0 4.15 0ZM12.25-6.65L19.65-6.65Q24.9-6.65 28.03-9.58 31.15-12.5 31.15-17.5L31.15-17.5Q31.15-22.5 28.03-25.43 24.9-28.35 19.65-28.35L19.65-28.35 12.25-28.35 12.25-6.65ZM51.9 0.6Q48.35 0.6 45.37-0.73 42.4-2.05 40.5-4.5L40.5-4.5 45-9.9Q47.85-6.05 51.5-6.05L51.5-6.05Q56.45-6.05 56.45-11.85L56.45-11.85 56.45-28.5 44.15-28.5 44.15-35 64.5-35 64.5-12.3Q64.5-5.85 61.3-2.63 58.1 0.6 51.9 0.6L51.9 0.6ZM98.65 0L95.55-7.5 79.3-7.5 76.2 0 67.9 0 83.5-35 91.5-35 107.15 0 98.65 0ZM81.9-13.65L93-13.65 87.45-27.05 81.9-13.65ZM134.89-35L142.89-35 142.89 0 136.24 0 118.79-21.25 118.79 0 110.79 0 110.79-35 117.49-35 134.89-13.75 134.89-35ZM174.84-7.8L174.84-18.05 182.24-18.05 182.24-3.85Q179.39-1.7 175.64-0.55 171.89 0.6 168.09 0.6L168.09 0.6Q162.64 0.6 158.29-1.73 153.94-4.05 151.47-8.18 148.99-12.3 148.99-17.5L148.99-17.5Q148.99-22.7 151.47-26.83 153.94-30.95 158.34-33.27 162.74-35.6 168.24-35.6L168.24-35.6Q172.84-35.6 176.59-34.05 180.34-32.5 182.89-29.55L182.89-29.55 177.69-24.75Q173.94-28.7 168.64-28.7L168.64-28.7Q165.29-28.7 162.69-27.3 160.09-25.9 158.64-23.35 157.19-20.8 157.19-17.5L157.19-17.5Q157.19-14.25 158.64-11.7 160.09-9.15 162.67-7.73 165.24-6.3 168.54-6.3L168.54-6.3Q172.04-6.3 174.84-7.8L174.84-7.8ZM206.69 0.6Q201.24 0.6 196.86-1.75 192.49-4.1 190.01-8.22 187.54-12.35 187.54-17.5L187.54-17.5Q187.54-22.65 190.01-26.78 192.49-30.9 196.86-33.25 201.24-35.6 206.69-35.6L206.69-35.6Q212.14-35.6 216.49-33.25 220.84-30.9 223.34-26.78 225.84-22.65 225.84-17.5L225.84-17.5Q225.84-12.35 223.34-8.22 220.84-4.1 216.49-1.75 212.14 0.6 206.69 0.6L206.69 0.6ZM206.69-6.3Q209.79-6.3 212.29-7.73 214.79-9.15 216.21-11.7 217.64-14.25 217.64-17.5L217.64-17.5Q217.64-20.75 216.21-23.3 214.79-25.85 212.29-27.28 209.79-28.7 206.69-28.7L206.69-28.7Q203.59-28.7 201.09-27.28 198.59-25.85 197.16-23.3 195.74-20.75 195.74-17.5L195.74-17.5Q195.74-14.25 197.16-11.7 198.59-9.15 201.09-7.73 203.59-6.3 206.69-6.3L206.69-6.3Z" fill="#1c64f2" data-fill-palette-color="primary"></path><path d="M269.84-18.2Q272.84-17.25 274.54-15.03 276.24-12.8 276.24-9.55L276.24-9.55Q276.24-4.95 272.66-2.48 269.09 0 262.24 0L262.24 0 244.14 0 244.14-35 261.24-35Q267.64-35 271.06-32.55 274.49-30.1 274.49-25.9L274.49-25.9Q274.49-23.35 273.26-21.35 272.04-19.35 269.84-18.2L269.84-18.2ZM260.24-28.9L252.19-28.9 252.19-20.65 260.24-20.65Q263.24-20.65 264.79-21.7 266.34-22.75 266.34-24.8L266.34-24.8Q266.34-26.85 264.79-27.88 263.24-28.9 260.24-28.9L260.24-28.9ZM261.64-6.1Q264.84-6.1 266.46-7.15 268.09-8.2 268.09-10.4L268.09-10.4Q268.09-14.75 261.64-14.75L261.64-14.75 252.19-14.75 252.19-6.1 261.64-6.1ZM282.39 0L282.39-35 290.49-35 290.49-6.6 308.04-6.6 308.04 0 282.39 0ZM329.53 0.6Q324.08 0.6 319.71-1.75 315.33-4.1 312.86-8.22 310.38-12.35 310.38-17.5L310.38-17.5Q310.38-22.65 312.86-26.78 315.33-30.9 319.71-33.25 324.08-35.6 329.53-35.6L329.53-35.6Q334.98-35.6 339.33-33.25 343.68-30.9 346.18-26.78 348.68-22.65 348.68-17.5L348.68-17.5Q348.68-12.35 346.18-8.22 343.68-4.1 339.33-1.75 334.98 0.6 329.53 0.6L329.53 0.6ZM329.53-6.3Q332.63-6.3 335.13-7.73 337.63-9.15 339.06-11.7 340.48-14.25 340.48-17.5L340.48-17.5Q340.48-20.75 339.06-23.3 337.63-25.85 335.13-27.28 332.63-28.7 329.53-28.7L329.53-28.7Q326.43-28.7 323.93-27.28 321.43-25.85 320.01-23.3 318.58-20.75 318.58-17.5L318.58-17.5Q318.58-14.25 320.01-11.7 321.43-9.15 323.93-7.73 326.43-6.3 329.53-6.3L329.53-6.3ZM378.43-7.8L378.43-18.05 385.83-18.05 385.83-3.85Q382.98-1.7 379.23-0.55 375.48 0.6 371.68 0.6L371.68 0.6Q366.23 0.6 361.88-1.73 357.53-4.05 355.06-8.18 352.58-12.3 352.58-17.5L352.58-17.5Q352.58-22.7 355.06-26.83 357.53-30.95 361.93-33.27 366.33-35.6 371.83-35.6L371.83-35.6Q376.43-35.6 380.18-34.05 383.93-32.5 386.48-29.55L386.48-29.55 381.28-24.75Q377.53-28.7 372.23-28.7L372.23-28.7Q368.88-28.7 366.28-27.3 363.68-25.9 362.23-23.35 360.78-20.8 360.78-17.5L360.78-17.5Q360.78-14.25 362.23-11.7 363.68-9.15 366.26-7.73 368.83-6.3 372.13-6.3L372.13-6.3Q375.63-6.3 378.43-7.8L378.43-7.8Z" fill="#77d4fc" data-fill-palette-color="secondary"></path></g></svg></g></svg></g></svg></g></svg></g></svg></g><defs></defs></svg><rect width="395.52" height="37.46160125588697" fill="none" stroke="none" visibility="hidden"></rect></g></svg></g></svg>